<svg xmlns="http://www.w3.org/2000/svg" viewBox="0 0 32 32">
  <!-- Body -->
  <ellipse cx="16" cy="19" rx="6" ry="9" fill="#e63946"/>
  <!-- Head -->
  <circle cx="16" cy="9" r="4.5" fill="#e63946"/>
  <!-- Eyes -->
  <circle cx="14" cy="8" r="1.3" fill="#000"/>
  <circle cx="18" cy="8" r="1.3" fill="#000"/>
  <!-- Antennae -->
  <line x1="13" y1="5" x2="8" y2="1" stroke="#e63946" stroke-width="1.5" stroke-linecap="round"/>
  <line x1="19" y1="5" x2="24" y2="1" stroke="#e63946" stroke-width="1.5" stroke-linecap="round"/>
  <circle cx="8" cy="1" r="1.2" fill="#e63946"/>
  <circle cx="24" cy="1" r="1.2" fill="#e63946"/>
  <!-- Legs -->
  <line x1="11" y1="16" x2="5" y2="13" stroke="#e63946" stroke-width="1.2"/>
  <line x1="11" y1="20" x2="4" y2="22" stroke="#e63946" stroke-width="1.2"/>
  <line x1="11" y1="24" x2="5" y2="28" stroke="#e63946" stroke-width="1.2"/>
  <line x1="21" y1="16" x2="27" y2="13" stroke="#e63946" stroke-width="1.2"/>
  <line x1="21" y1="20" x2="28" y2="22" stroke="#e63946" stroke-width="1.2"/>
  <line x1="21" y1="24" x2="27" y2="28" stroke="#e63946" stroke-width="1.2"/>
  <!-- Wings -->
  <ellipse cx="8" cy="12" rx="5" ry="4" fill="rgba(230,57,70,0.3)" stroke="#e63946" stroke-width="0.5" transform="rotate(-25 8 12)"/>
  <ellipse cx="24" cy="12" rx="5" ry="4" fill="rgba(230,57,70,0.3)" stroke="#e63946" stroke-width="0.5" transform="rotate(25 24 12)"/>
</svg>
